<?xml version='1.0' encoding='iso-8859-1'?>
<!DOCTYPE svg PUBLIC '-//W3C//DTD SVG 1.1//EN' 'http://www.w3.org/Graphics/SVG/1.1/DTD/svg11.dtd'>
<!-- Uploaded to: SVG Repo, www.svgrepo.com, Generator: SVG Repo Mixer Tools -->
<svg fill="#000000" height="800px" width="800px" version="1.1" xmlns="http://www.w3.org/2000/svg" viewBox="0 0 512 512" xmlns:xlink="http://www.w3.org/1999/xlink" enable-background="new 0 0 512 512">
  <path d="m507.641,431.876l-224-384.002c-5.734-9.828-16.258-15.875-27.641-15.875-11.383,0-21.906,6.047-27.641,15.875l-224,384.002c-5.773,9.898-5.813,22.125-0.109,32.063 5.711,9.938 16.289,16.063 27.75,16.063h448.001c11.461,0 22.039-6.125 27.75-16.063 5.703-9.938 5.664-22.165-0.11-32.063zm-155.641-95.876h-57.375l20.688,20.688c6.25,6.25 6.25,16.375 0,22.625-3.125,3.125-7.219,4.687-11.313,4.687-4.094,0-8.188-1.563-11.313-4.688l-20.687-20.687v57.375c0,8.836-7.164,16-16,16s-16-7.164-16-16v-57.375l-20.688,20.688c-3.125,3.125-7.218,4.687-11.312,4.687-4.094,0-8.188-1.563-11.313-4.688-6.25-6.25-6.25-16.375 0-22.625l20.688-20.687h-57.375c-8.836,0-16-7.164-16-16s7.164-16 16-16h57.375l-20.688-20.688c-6.25-6.25-6.25-16.375 0-22.625s16.375-6.25 22.625,0l20.688,20.688v-57.375c0-8.836 7.164-16 16-16s16,7.164 16,16v57.375l20.688-20.688c6.25-6.25 16.375-6.25 22.625,0s6.25,16.375 0,22.625l-20.688,20.688h57.375c8.836,0 16,7.164 16,16s-7.164,16-16,16z"/>
</svg>